# xmcd CD database file
#
# Track frame offsets:
#	150
#	25876
#	54580
#	82016
#	109748
#	151964
#
# Disc length: 2447 seconds
#
# Revision: 0
# Processed by: cddbd v1.5.2PL0 Copyright (c) Steve Scherf et al.
# Submitted via: CDex 1.70beta2
#
DISCID=43098d06
DTITLE=Sonny Rollins - Modern Jazz Hard Bop Vol. 4 CD 051
DYEAR=2008
DGENRE=Jazz
TTITLE0=Sonny Rollins Quintet - Why Don't I?
TTITLE1=Sonny Rollins Quintet - You Stepped Out Of A Dream
TTITLE2=Sonny Rollins Quintet - Poor Butterfly
TTITLE3=Sonny Rollins Quintet - Wail March
TTITLE4=Sonny Rollins Quintet - Misterioso
TTITLE5=Sonny Rollins Quintet - Reflections
EXTD=YEAR: 2008
EXTT0=
EXTT1=
EXTT2=
EXTT3=
EXTT4=
EXTT5=
PLAYORDER=
